<svg width="26" height="19" viewBox="0 0 26 19" fill="none" xmlns="http://www.w3.org/2000/svg">
<path fill-rule="evenodd" clip-rule="evenodd" d="M21.786 0.93335H0.466675V16.6632H4.44389L4.44389 15.3901C4.44389 14.1071 4.95353 12.8767 5.8607 11.9696C6.76787 11.0624 7.99826 10.5528 9.2812 10.5528L9.95657 10.5527V11.8739L9.86308 12.0259C9.78574 12.0207 9.70772 12.0181 9.62908 12.0181C7.71545 12.0181 6.16414 13.5694 6.16414 15.483C6.16414 17.3967 7.71545 18.948 9.62908 18.948C11.1283 18.948 12.4052 17.9958 12.8879 16.6632H24.4387V13.9957H25.7214V11.1937H24.4387V3.46493L21.786 0.93335ZM14.4544 3.35473H18.1248V14.2677H14.4544V3.35473ZM23.2762 3.35473H19.6058V14.2677H23.2762V3.35473ZM5.35637 3.35473H13.6506V8.09949H5.35637V3.35473ZM4.13631 3.35473H0.814979V8.09949H4.13631V3.35473ZM9.669 17.8481C11.0213 17.8481 12.1176 16.7519 12.1176 15.3995C12.1176 14.0472 11.0213 12.951 9.669 12.951C8.31668 12.951 7.2204 14.0472 7.2204 15.3995C7.2204 16.7519 8.31668 17.8481 9.669 17.8481Z" fill="white"/>
</svg>
