<svg width="428" height="58" viewBox="0 0 428 58" fill="none" xmlns="http://www.w3.org/2000/svg">
<rect y="24" width="20" height="16" fill="#67C259" fill-opacity="0.5"/>
<rect x="22" y="24" width="20" height="16" fill="#67C259" fill-opacity="0.5"/>
<rect x="44" y="24" width="20" height="16" fill="#67C259" fill-opacity="0.5"/>
<rect x="66" y="24" width="20" height="16" fill="#67C259" fill-opacity="0.5"/>
<rect x="88" y="24" width="20" height="16" fill="#67C259" fill-opacity="0.5"/>
<rect x="110" y="24" width="20" height="16" fill="#67C259" fill-opacity="0.5"/>
<rect x="132" y="8" width="20" height="32" fill="#FFD400" fill-opacity="0.5"/>
<rect x="154" y="8" width="20" height="32" fill="#FFD400" fill-opacity="0.5"/>
<rect x="176" y="8" width="20" height="32" fill="#FFD400" fill-opacity="0.5"/>
<rect x="198" y="8" width="20" height="32" fill="#FFD400" fill-opacity="0.5"/>
<rect x="264" y="8" width="20" height="32" fill="#FFD400" fill-opacity="0.5"/>
<rect x="286" y="8" width="20" height="32" fill="#FFD400" fill-opacity="0.5"/>
<rect x="308" y="8" width="20" height="32" fill="#FFD400" fill-opacity="0.5"/>
<rect x="330" y="8" width="20" height="32" fill="#FFD400" fill-opacity="0.5"/>
<rect x="352" width="20" height="40" fill="#E53030" fill-opacity="0.5"/>
<rect x="374" width="20" height="40" fill="#E53030" fill-opacity="0.5"/>
<rect x="396" width="20" height="40" fill="#E53030" fill-opacity="0.5"/>
<rect x="418" width="20" height="40" fill="#E53030" fill-opacity="0.5"/>
<rect x="220" y="24" width="20" height="16" fill="#67C259" fill-opacity="0.5"/>
<rect x="242" y="24" width="20" height="16" fill="#67C259" fill-opacity="0.5"/>
<path d="M56.9629 45.4629V46.3828H56.7637C55.9199 46.3984 55.248 46.6484 54.748 47.1328C54.248 47.6172 53.959 48.2988 53.8809 49.1777C54.3301 48.6621 54.9434 48.4043 55.7207 48.4043C56.4629 48.4043 57.0547 48.666 57.4961 49.1895C57.9414 49.7129 58.1641 50.3887 58.1641 51.2168C58.1641 52.0957 57.9238 52.7988 57.4434 53.3262C56.9668 53.8535 56.3262 54.1172 55.5215 54.1172C54.7051 54.1172 54.043 53.8047 53.5352 53.1797C53.0273 52.5508 52.7734 51.7422 52.7734 50.7539V50.3379C52.7734 48.7676 53.1074 47.5684 53.7754 46.7402C54.4473 45.9082 55.4453 45.4824 56.7695 45.4629H56.9629ZM55.5391 49.3066C55.168 49.3066 54.8262 49.418 54.5137 49.6406C54.2012 49.8633 53.9844 50.1426 53.8633 50.4785V50.877C53.8633 51.5801 54.0215 52.1465 54.3379 52.5762C54.6543 53.0059 55.0488 53.2207 55.5215 53.2207C56.0098 53.2207 56.3926 53.041 56.6699 52.6816C56.9512 52.3223 57.0918 51.8516 57.0918 51.2695C57.0918 50.6836 56.9492 50.2109 56.6641 49.8516C56.3828 49.4883 56.0078 49.3066 55.5391 49.3066ZM59.5234 53.4316C59.5234 53.2441 59.5781 53.0879 59.6875 52.9629C59.8008 52.8379 59.9688 52.7754 60.1914 52.7754C60.4141 52.7754 60.582 52.8379 60.6953 52.9629C60.8125 53.0879 60.8711 53.2441 60.8711 53.4316C60.8711 53.6113 60.8125 53.7617 60.6953 53.8828C60.582 54.0039 60.4141 54.0645 60.1914 54.0645C59.9688 54.0645 59.8008 54.0039 59.6875 53.8828C59.5781 53.7617 59.5234 53.6113 59.5234 53.4316ZM59.5293 48.2578C59.5293 48.0703 59.584 47.9141 59.6934 47.7891C59.8066 47.6641 59.9746 47.6016 60.1973 47.6016C60.4199 47.6016 60.5879 47.6641 60.7012 47.7891C60.8184 47.9141 60.877 48.0703 60.877 48.2578C60.877 48.4375 60.8184 48.5879 60.7012 48.709C60.5879 48.8301 60.4199 48.8906 60.1973 48.8906C59.9746 48.8906 59.8066 48.8301 59.6934 48.709C59.584 48.5879 59.5293 48.4375 59.5293 48.2578ZM67.7031 50.3613C67.7031 51.6309 67.4863 52.5742 67.0527 53.1914C66.6191 53.8086 65.9414 54.1172 65.0195 54.1172C64.1094 54.1172 63.4355 53.8164 62.998 53.2148C62.5605 52.6094 62.334 51.707 62.3184 50.5078V49.0605C62.3184 47.8066 62.5352 46.875 62.9688 46.2656C63.4023 45.6562 64.082 45.3516 65.0078 45.3516C65.9258 45.3516 66.6016 45.6465 67.0352 46.2363C67.4688 46.8223 67.6914 47.7285 67.7031 48.9551V50.3613ZM66.6191 48.8789C66.6191 47.9609 66.4902 47.293 66.2324 46.875C65.9746 46.4531 65.5664 46.2422 65.0078 46.2422C64.4531 46.2422 64.0488 46.4512 63.7949 46.8691C63.541 47.2871 63.4102 47.9297 63.4023 48.7969V50.5312C63.4023 51.4531 63.5352 52.1348 63.8008 52.5762C64.0703 53.0137 64.4766 53.2324 65.0195 53.2324C65.5547 53.2324 65.9512 53.0254 66.209 52.6113C66.4707 52.1973 66.6074 51.5449 66.6191 50.6543V48.8789ZM74.4414 50.3613C74.4414 51.6309 74.2246 52.5742 73.791 53.1914C73.3574 53.8086 72.6797 54.1172 71.7578 54.1172C70.8477 54.1172 70.1738 53.8164 69.7363 53.2148C69.2988 52.6094 69.0723 51.707 69.0566 50.5078V49.0605C69.0566 47.8066 69.2734 46.875 69.707 46.2656C70.1406 45.6562 70.8203 45.3516 71.7461 45.3516C72.6641 45.3516 73.3398 45.6465 73.7734 46.2363C74.207 46.8223 74.4297 47.7285 74.4414 48.9551V50.3613ZM73.3574 48.8789C73.3574 47.9609 73.2285 47.293 72.9707 46.875C72.7129 46.4531 72.3047 46.2422 71.7461 46.2422C71.1914 46.2422 70.7871 46.4512 70.5332 46.8691C70.2793 47.2871 70.1484 47.9297 70.1406 48.7969V50.5312C70.1406 51.4531 70.2734 52.1348 70.5391 52.5762C70.8086 53.0137 71.2148 53.2324 71.7578 53.2324C72.293 53.2324 72.6895 53.0254 72.9473 52.6113C73.209 52.1973 73.3457 51.5449 73.3574 50.6543V48.8789Z" fill="black"/>
<path d="M163.271 54H162.182V46.7754L159.996 47.5781V46.5938L163.102 45.4277H163.271V54ZM171.797 50.3613C171.797 51.6309 171.58 52.5742 171.146 53.1914C170.713 53.8086 170.035 54.1172 169.113 54.1172C168.203 54.1172 167.529 53.8164 167.092 53.2148C166.654 52.6094 166.428 51.707 166.412 50.5078V49.0605C166.412 47.8066 166.629 46.875 167.062 46.2656C167.496 45.6562 168.176 45.3516 169.102 45.3516C170.02 45.3516 170.695 45.6465 171.129 46.2363C171.562 46.8223 171.785 47.7285 171.797 48.9551V50.3613ZM170.713 48.8789C170.713 47.9609 170.584 47.293 170.326 46.875C170.068 46.4531 169.66 46.2422 169.102 46.2422C168.547 46.2422 168.143 46.4512 167.889 46.8691C167.635 47.2871 167.504 47.9297 167.496 48.7969V50.5312C167.496 51.4531 167.629 52.1348 167.895 52.5762C168.164 53.0137 168.57 53.2324 169.113 53.2324C169.648 53.2324 170.045 53.0254 170.303 52.6113C170.564 52.1973 170.701 51.5449 170.713 50.6543V48.8789ZM173.262 53.4316C173.262 53.2441 173.316 53.0879 173.426 52.9629C173.539 52.8379 173.707 52.7754 173.93 52.7754C174.152 52.7754 174.32 52.8379 174.434 52.9629C174.551 53.0879 174.609 53.2441 174.609 53.4316C174.609 53.6113 174.551 53.7617 174.434 53.8828C174.32 54.0039 174.152 54.0645 173.93 54.0645C173.707 54.0645 173.539 54.0039 173.426 53.8828C173.316 53.7617 173.262 53.6113 173.262 53.4316ZM173.268 48.2578C173.268 48.0703 173.322 47.9141 173.432 47.7891C173.545 47.6641 173.713 47.6016 173.936 47.6016C174.158 47.6016 174.326 47.6641 174.439 47.7891C174.557 47.9141 174.615 48.0703 174.615 48.2578C174.615 48.4375 174.557 48.5879 174.439 48.709C174.326 48.8301 174.158 48.8906 173.936 48.8906C173.713 48.8906 173.545 48.8301 173.432 48.709C173.322 48.5879 173.268 48.4375 173.268 48.2578ZM181.441 50.3613C181.441 51.6309 181.225 52.5742 180.791 53.1914C180.357 53.8086 179.68 54.1172 178.758 54.1172C177.848 54.1172 177.174 53.8164 176.736 53.2148C176.299 52.6094 176.072 51.707 176.057 50.5078V49.0605C176.057 47.8066 176.273 46.875 176.707 46.2656C177.141 45.6562 177.82 45.3516 178.746 45.3516C179.664 45.3516 180.34 45.6465 180.773 46.2363C181.207 46.8223 181.43 47.7285 181.441 48.9551V50.3613ZM180.357 48.8789C180.357 47.9609 180.229 47.293 179.971 46.875C179.713 46.4531 179.305 46.2422 178.746 46.2422C178.191 46.2422 177.787 46.4512 177.533 46.8691C177.279 47.2871 177.148 47.9297 177.141 48.7969V50.5312C177.141 51.4531 177.273 52.1348 177.539 52.5762C177.809 53.0137 178.215 53.2324 178.758 53.2324C179.293 53.2324 179.689 53.0254 179.947 52.6113C180.209 52.1973 180.346 51.5449 180.357 50.6543V48.8789ZM188.18 50.3613C188.18 51.6309 187.963 52.5742 187.529 53.1914C187.096 53.8086 186.418 54.1172 185.496 54.1172C184.586 54.1172 183.912 53.8164 183.475 53.2148C183.037 52.6094 182.811 51.707 182.795 50.5078V49.0605C182.795 47.8066 183.012 46.875 183.445 46.2656C183.879 45.6562 184.559 45.3516 185.484 45.3516C186.402 45.3516 187.078 45.6465 187.512 46.2363C187.945 46.8223 188.168 47.7285 188.18 48.9551V50.3613ZM187.096 48.8789C187.096 47.9609 186.967 47.293 186.709 46.875C186.451 46.4531 186.043 46.2422 185.484 46.2422C184.93 46.2422 184.525 46.4512 184.271 46.8691C184.018 47.2871 183.887 47.9297 183.879 48.7969V50.5312C183.879 51.4531 184.012 52.1348 184.277 52.5762C184.547 53.0137 184.953 53.2324 185.496 53.2324C186.031 53.2324 186.428 53.0254 186.686 52.6113C186.947 52.1973 187.084 51.5449 187.096 50.6543V48.8789Z" fill="black"/>
<path d="M229.271 54H228.182V46.7754L225.996 47.5781V46.5938L229.102 45.4277H229.271V54ZM238.037 54H232.447V53.2207L235.4 49.9395C235.838 49.4434 236.139 49.041 236.303 48.7324C236.471 48.4199 236.555 48.0977 236.555 47.7656C236.555 47.3203 236.42 46.9551 236.15 46.6699C235.881 46.3848 235.521 46.2422 235.072 46.2422C234.533 46.2422 234.113 46.3965 233.812 46.7051C233.516 47.0098 233.367 47.4355 233.367 47.9824H232.283C232.283 47.1973 232.535 46.5625 233.039 46.0781C233.547 45.5938 234.225 45.3516 235.072 45.3516C235.865 45.3516 236.492 45.5605 236.953 45.9785C237.414 46.3926 237.645 46.9453 237.645 47.6367C237.645 48.4766 237.109 49.4766 236.039 50.6367L233.754 53.1152H238.037V54ZM239.262 53.4316C239.262 53.2441 239.316 53.0879 239.426 52.9629C239.539 52.8379 239.707 52.7754 239.93 52.7754C240.152 52.7754 240.32 52.8379 240.434 52.9629C240.551 53.0879 240.609 53.2441 240.609 53.4316C240.609 53.6113 240.551 53.7617 240.434 53.8828C240.32 54.0039 240.152 54.0645 239.93 54.0645C239.707 54.0645 239.539 54.0039 239.426 53.8828C239.316 53.7617 239.262 53.6113 239.262 53.4316ZM239.268 48.2578C239.268 48.0703 239.322 47.9141 239.432 47.7891C239.545 47.6641 239.713 47.6016 239.936 47.6016C240.158 47.6016 240.326 47.6641 240.439 47.7891C240.557 47.9141 240.615 48.0703 240.615 48.2578C240.615 48.4375 240.557 48.5879 240.439 48.709C240.326 48.8301 240.158 48.8906 239.936 48.8906C239.713 48.8906 239.545 48.8301 239.432 48.709C239.322 48.5879 239.268 48.4375 239.268 48.2578ZM247.441 50.3613C247.441 51.6309 247.225 52.5742 246.791 53.1914C246.357 53.8086 245.68 54.1172 244.758 54.1172C243.848 54.1172 243.174 53.8164 242.736 53.2148C242.299 52.6094 242.072 51.707 242.057 50.5078V49.0605C242.057 47.8066 242.273 46.875 242.707 46.2656C243.141 45.6562 243.82 45.3516 244.746 45.3516C245.664 45.3516 246.34 45.6465 246.773 46.2363C247.207 46.8223 247.43 47.7285 247.441 48.9551V50.3613ZM246.357 48.8789C246.357 47.9609 246.229 47.293 245.971 46.875C245.713 46.4531 245.305 46.2422 244.746 46.2422C244.191 46.2422 243.787 46.4512 243.533 46.8691C243.279 47.2871 243.148 47.9297 243.141 48.7969V50.5312C243.141 51.4531 243.273 52.1348 243.539 52.5762C243.809 53.0137 244.215 53.2324 244.758 53.2324C245.293 53.2324 245.689 53.0254 245.947 52.6113C246.209 52.1973 246.346 51.5449 246.357 50.6543V48.8789ZM254.18 50.3613C254.18 51.6309 253.963 52.5742 253.529 53.1914C253.096 53.8086 252.418 54.1172 251.496 54.1172C250.586 54.1172 249.912 53.8164 249.475 53.2148C249.037 52.6094 248.811 51.707 248.795 50.5078V49.0605C248.795 47.8066 249.012 46.875 249.445 46.2656C249.879 45.6562 250.559 45.3516 251.484 45.3516C252.402 45.3516 253.078 45.6465 253.512 46.2363C253.945 46.8223 254.168 47.7285 254.18 48.9551V50.3613ZM253.096 48.8789C253.096 47.9609 252.967 47.293 252.709 46.875C252.451 46.4531 252.043 46.2422 251.484 46.2422C250.93 46.2422 250.525 46.4512 250.271 46.8691C250.018 47.2871 249.887 47.9297 249.879 48.7969V50.5312C249.879 51.4531 250.012 52.1348 250.277 52.5762C250.547 53.0137 250.953 53.2324 251.496 53.2324C252.031 53.2324 252.428 53.0254 252.686 52.6113C252.947 52.1973 253.084 51.5449 253.096 50.6543V48.8789Z" fill="black"/>
<path d="M296.271 54H295.182V46.7754L292.996 47.5781V46.5938L296.102 45.4277H296.271V54ZM303.701 45.4629V46.3828H303.502C302.658 46.3984 301.986 46.6484 301.486 47.1328C300.986 47.6172 300.697 48.2988 300.619 49.1777C301.068 48.6621 301.682 48.4043 302.459 48.4043C303.201 48.4043 303.793 48.666 304.234 49.1895C304.68 49.7129 304.902 50.3887 304.902 51.2168C304.902 52.0957 304.662 52.7988 304.182 53.3262C303.705 53.8535 303.064 54.1172 302.26 54.1172C301.443 54.1172 300.781 53.8047 300.273 53.1797C299.766 52.5508 299.512 51.7422 299.512 50.7539V50.3379C299.512 48.7676 299.846 47.5684 300.514 46.7402C301.186 45.9082 302.184 45.4824 303.508 45.4629H303.701ZM302.277 49.3066C301.906 49.3066 301.564 49.418 301.252 49.6406C300.939 49.8633 300.723 50.1426 300.602 50.4785V50.877C300.602 51.5801 300.76 52.1465 301.076 52.5762C301.393 53.0059 301.787 53.2207 302.26 53.2207C302.748 53.2207 303.131 53.041 303.408 52.6816C303.689 52.3223 303.83 51.8516 303.83 51.2695C303.83 50.6836 303.688 50.2109 303.402 49.8516C303.121 49.4883 302.746 49.3066 302.277 49.3066ZM306.262 53.4316C306.262 53.2441 306.316 53.0879 306.426 52.9629C306.539 52.8379 306.707 52.7754 306.93 52.7754C307.152 52.7754 307.32 52.8379 307.434 52.9629C307.551 53.0879 307.609 53.2441 307.609 53.4316C307.609 53.6113 307.551 53.7617 307.434 53.8828C307.32 54.0039 307.152 54.0645 306.93 54.0645C306.707 54.0645 306.539 54.0039 306.426 53.8828C306.316 53.7617 306.262 53.6113 306.262 53.4316ZM306.268 48.2578C306.268 48.0703 306.322 47.9141 306.432 47.7891C306.545 47.6641 306.713 47.6016 306.936 47.6016C307.158 47.6016 307.326 47.6641 307.439 47.7891C307.557 47.9141 307.615 48.0703 307.615 48.2578C307.615 48.4375 307.557 48.5879 307.439 48.709C307.326 48.8301 307.158 48.8906 306.936 48.8906C306.713 48.8906 306.545 48.8301 306.432 48.709C306.322 48.5879 306.268 48.4375 306.268 48.2578ZM314.441 50.3613C314.441 51.6309 314.225 52.5742 313.791 53.1914C313.357 53.8086 312.68 54.1172 311.758 54.1172C310.848 54.1172 310.174 53.8164 309.736 53.2148C309.299 52.6094 309.072 51.707 309.057 50.5078V49.0605C309.057 47.8066 309.273 46.875 309.707 46.2656C310.141 45.6562 310.82 45.3516 311.746 45.3516C312.664 45.3516 313.34 45.6465 313.773 46.2363C314.207 46.8223 314.43 47.7285 314.441 48.9551V50.3613ZM313.357 48.8789C313.357 47.9609 313.229 47.293 312.971 46.875C312.713 46.4531 312.305 46.2422 311.746 46.2422C311.191 46.2422 310.787 46.4512 310.533 46.8691C310.279 47.2871 310.148 47.9297 310.141 48.7969V50.5312C310.141 51.4531 310.273 52.1348 310.539 52.5762C310.809 53.0137 311.215 53.2324 311.758 53.2324C312.293 53.2324 312.689 53.0254 312.947 52.6113C313.209 52.1973 313.346 51.5449 313.357 50.6543V48.8789ZM321.18 50.3613C321.18 51.6309 320.963 52.5742 320.529 53.1914C320.096 53.8086 319.418 54.1172 318.496 54.1172C317.586 54.1172 316.912 53.8164 316.475 53.2148C316.037 52.6094 315.811 51.707 315.795 50.5078V49.0605C315.795 47.8066 316.012 46.875 316.445 46.2656C316.879 45.6562 317.559 45.3516 318.484 45.3516C319.402 45.3516 320.078 45.6465 320.512 46.2363C320.945 46.8223 321.168 47.7285 321.18 48.9551V50.3613ZM320.096 48.8789C320.096 47.9609 319.967 47.293 319.709 46.875C319.451 46.4531 319.043 46.2422 318.484 46.2422C317.93 46.2422 317.525 46.4512 317.271 46.8691C317.018 47.2871 316.887 47.9297 316.879 48.7969V50.5312C316.879 51.4531 317.012 52.1348 317.277 52.5762C317.547 53.0137 317.953 53.2324 318.496 53.2324C319.031 53.2324 319.428 53.0254 319.686 52.6113C319.947 52.1973 320.084 51.5449 320.096 50.6543V48.8789Z" fill="black"/>
<path d="M388.271 54H387.182V46.7754L384.996 47.5781V46.5938L388.102 45.4277H388.271V54ZM396.621 47.6953C396.621 48.1211 396.508 48.5 396.281 48.832C396.059 49.1641 395.756 49.4238 395.373 49.6113C395.818 49.8027 396.17 50.082 396.428 50.4492C396.689 50.8164 396.82 51.2324 396.82 51.6973C396.82 52.4355 396.57 53.0234 396.07 53.4609C395.574 53.8984 394.92 54.1172 394.107 54.1172C393.287 54.1172 392.629 53.8984 392.133 53.4609C391.641 53.0195 391.395 52.4316 391.395 51.6973C391.395 51.2363 391.52 50.8203 391.77 50.4492C392.023 50.0781 392.373 49.7969 392.818 49.6055C392.439 49.418 392.141 49.1582 391.922 48.8262C391.703 48.4941 391.594 48.1172 391.594 47.6953C391.594 46.9766 391.824 46.4062 392.285 45.9844C392.746 45.5625 393.354 45.3516 394.107 45.3516C394.857 45.3516 395.463 45.5625 395.924 45.9844C396.389 46.4062 396.621 46.9766 396.621 47.6953ZM395.736 51.6738C395.736 51.1973 395.584 50.8086 395.279 50.5078C394.979 50.207 394.584 50.0566 394.096 50.0566C393.607 50.0566 393.215 50.2051 392.918 50.502C392.625 50.7988 392.479 51.1895 392.479 51.6738C392.479 52.1582 392.621 52.5391 392.906 52.8164C393.195 53.0938 393.596 53.2324 394.107 53.2324C394.615 53.2324 395.014 53.0938 395.303 52.8164C395.592 52.5352 395.736 52.1543 395.736 51.6738ZM394.107 46.2422C393.682 46.2422 393.336 46.375 393.07 46.6406C392.809 46.9023 392.678 47.2598 392.678 47.7129C392.678 48.1465 392.807 48.498 393.064 48.7676C393.326 49.0332 393.674 49.166 394.107 49.166C394.541 49.166 394.887 49.0332 395.145 48.7676C395.406 48.498 395.537 48.1465 395.537 47.7129C395.537 47.2793 395.402 46.9258 395.133 46.6523C394.863 46.3789 394.521 46.2422 394.107 46.2422ZM398.262 53.4316C398.262 53.2441 398.316 53.0879 398.426 52.9629C398.539 52.8379 398.707 52.7754 398.93 52.7754C399.152 52.7754 399.32 52.8379 399.434 52.9629C399.551 53.0879 399.609 53.2441 399.609 53.4316C399.609 53.6113 399.551 53.7617 399.434 53.8828C399.32 54.0039 399.152 54.0645 398.93 54.0645C398.707 54.0645 398.539 54.0039 398.426 53.8828C398.316 53.7617 398.262 53.6113 398.262 53.4316ZM398.268 48.2578C398.268 48.0703 398.322 47.9141 398.432 47.7891C398.545 47.6641 398.713 47.6016 398.936 47.6016C399.158 47.6016 399.326 47.6641 399.439 47.7891C399.557 47.9141 399.615 48.0703 399.615 48.2578C399.615 48.4375 399.557 48.5879 399.439 48.709C399.326 48.8301 399.158 48.8906 398.936 48.8906C398.713 48.8906 398.545 48.8301 398.432 48.709C398.322 48.5879 398.268 48.4375 398.268 48.2578ZM406.441 50.3613C406.441 51.6309 406.225 52.5742 405.791 53.1914C405.357 53.8086 404.68 54.1172 403.758 54.1172C402.848 54.1172 402.174 53.8164 401.736 53.2148C401.299 52.6094 401.072 51.707 401.057 50.5078V49.0605C401.057 47.8066 401.273 46.875 401.707 46.2656C402.141 45.6562 402.82 45.3516 403.746 45.3516C404.664 45.3516 405.34 45.6465 405.773 46.2363C406.207 46.8223 406.43 47.7285 406.441 48.9551V50.3613ZM405.357 48.8789C405.357 47.9609 405.229 47.293 404.971 46.875C404.713 46.4531 404.305 46.2422 403.746 46.2422C403.191 46.2422 402.787 46.4512 402.533 46.8691C402.279 47.2871 402.148 47.9297 402.141 48.7969V50.5312C402.141 51.4531 402.273 52.1348 402.539 52.5762C402.809 53.0137 403.215 53.2324 403.758 53.2324C404.293 53.2324 404.689 53.0254 404.947 52.6113C405.209 52.1973 405.346 51.5449 405.357 50.6543V48.8789ZM413.18 50.3613C413.18 51.6309 412.963 52.5742 412.529 53.1914C412.096 53.8086 411.418 54.1172 410.496 54.1172C409.586 54.1172 408.912 53.8164 408.475 53.2148C408.037 52.6094 407.811 51.707 407.795 50.5078V49.0605C407.795 47.8066 408.012 46.875 408.445 46.2656C408.879 45.6562 409.559 45.3516 410.484 45.3516C411.402 45.3516 412.078 45.6465 412.512 46.2363C412.945 46.8223 413.168 47.7285 413.18 48.9551V50.3613ZM412.096 48.8789C412.096 47.9609 411.967 47.293 411.709 46.875C411.451 46.4531 411.043 46.2422 410.484 46.2422C409.93 46.2422 409.525 46.4512 409.271 46.8691C409.018 47.2871 408.887 47.9297 408.879 48.7969V50.5312C408.879 51.4531 409.012 52.1348 409.277 52.5762C409.547 53.0137 409.953 53.2324 410.496 53.2324C411.031 53.2324 411.428 53.0254 411.686 52.6113C411.947 52.1973 412.084 51.5449 412.096 50.6543V48.8789Z" fill="black"/>
</svg>
