<svg width="20" height="20" viewBox="0 0 20 20" fill="none" xmlns="http://www.w3.org/2000/svg">
<g clip-path="url(#clip0_71:693)">
<path d="M10 11.4062C10.7767 11.4062 11.4062 10.7767 11.4062 10C11.4062 9.22335 10.7767 8.59375 10 8.59375C9.22335 8.59375 8.59375 9.22335 8.59375 10C8.59375 10.7767 9.22335 11.4062 10 11.4062Z" fill="#0FA958"/>
<path d="M7.43125 13.3504C7.30979 13.3505 7.18969 13.3249 7.07886 13.2752C6.96803 13.2255 6.86899 13.1529 6.78828 13.0621C6.0386 12.2184 5.62451 11.129 5.62451 10.0004C5.62451 8.87176 6.0386 7.78235 6.78828 6.93867C6.86263 6.8521 6.95347 6.78121 7.05552 6.73013C7.15756 6.67905 7.26875 6.6488 7.38261 6.64115C7.49646 6.63351 7.6107 6.64861 7.71866 6.68558C7.82661 6.72256 7.92612 6.78066 8.01138 6.85651C8.09664 6.93235 8.16595 7.02442 8.21524 7.12733C8.26454 7.23024 8.29285 7.34195 8.29852 7.45592C8.30419 7.56989 8.2871 7.68385 8.24825 7.79115C8.20941 7.89844 8.14958 7.99693 8.07226 8.08086C7.60231 8.6099 7.34274 9.29295 7.34274 10.0006C7.34274 10.7082 7.60231 11.3913 8.07226 11.9203C8.18222 12.0441 8.25408 12.197 8.27919 12.3607C8.3043 12.5244 8.28158 12.6918 8.21379 12.8429C8.14599 12.9939 8.036 13.1222 7.89703 13.2122C7.75807 13.3023 7.59605 13.3502 7.43047 13.3504H7.43125Z" fill="#0FA958"/>
<path d="M12.5687 13.3504C12.4031 13.3502 12.2411 13.3023 12.1021 13.2122C11.9632 13.1222 11.8532 12.9939 11.7854 12.8429C11.7176 12.6918 11.6949 12.5244 11.72 12.3607C11.7451 12.197 11.8169 12.0441 11.9269 11.9203C12.3969 11.3913 12.6564 10.7082 12.6564 10.0006C12.6564 9.29295 12.3969 8.6099 11.9269 8.08086C11.8496 7.99693 11.7898 7.89844 11.7509 7.79115C11.7121 7.68385 11.695 7.56989 11.7006 7.45592C11.7063 7.34195 11.7346 7.23024 11.7839 7.12733C11.8332 7.02442 11.9025 6.93235 11.9878 6.85651C12.073 6.78066 12.1726 6.72256 12.2805 6.68558C12.3885 6.64861 12.5027 6.63351 12.6166 6.64115C12.7304 6.6488 12.8416 6.67905 12.9436 6.73013C13.0457 6.78121 13.1365 6.8521 13.2109 6.93867C13.9606 7.78235 14.3747 8.87176 14.3747 10.0004C14.3747 11.129 13.9606 12.2184 13.2109 13.0621C13.1303 13.1528 13.0313 13.2253 12.9207 13.275C12.81 13.3247 12.69 13.3504 12.5687 13.3504Z" fill="#0FA958"/>
<path d="M5.441 15.3406C5.32312 15.3407 5.20649 15.3165 5.0984 15.2694C4.99032 15.2224 4.89311 15.1535 4.81288 15.0672C3.52783 13.6924 2.81299 11.8808 2.81299 9.999C2.81299 8.11717 3.52783 6.30559 4.81288 4.93084C4.88979 4.8477 4.98238 4.7806 5.08532 4.73337C5.18826 4.68614 5.29952 4.65973 5.4127 4.65565C5.52588 4.65157 5.63876 4.6699 5.74483 4.70959C5.8509 4.74928 5.94808 4.80954 6.03079 4.88692C6.11349 4.96429 6.18009 5.05725 6.22674 5.16045C6.2734 5.26365 6.29919 5.37505 6.30265 5.48826C6.3061 5.60146 6.28714 5.71423 6.24687 5.82008C6.20659 5.92593 6.14579 6.02278 6.06795 6.10505C5.0807 7.16141 4.53152 8.55332 4.53152 9.99919C4.53152 11.4451 5.0807 12.837 6.06795 13.8933C6.18201 14.0157 6.25788 14.1687 6.28624 14.3336C6.3146 14.4984 6.29423 14.668 6.22762 14.8214C6.16101 14.9749 6.05107 15.1056 5.91127 15.1974C5.77147 15.2893 5.6079 15.3384 5.44061 15.3386L5.441 15.3406Z" fill="#0FA958"/>
<path d="M14.559 15.3406C14.3917 15.3403 14.2281 15.2913 14.0883 15.1994C13.9485 15.1075 13.8386 14.9769 13.772 14.8234C13.7054 14.6699 13.685 14.5004 13.7133 14.3355C13.7417 14.1707 13.8176 14.0177 13.9316 13.8953C14.9189 12.8389 15.4681 11.447 15.4681 10.0011C15.4681 8.55527 14.9189 7.16336 13.9316 6.10701C13.8538 6.02473 13.793 5.92789 13.7527 5.82204C13.7124 5.71618 13.6935 5.60341 13.6969 5.49021C13.7004 5.37701 13.7262 5.2656 13.7728 5.1624C13.8195 5.05921 13.8861 4.96625 13.9688 4.88887C14.0515 4.81149 14.1487 4.75123 14.2547 4.71154C14.3608 4.67185 14.4737 4.65352 14.5869 4.6576C14.7001 4.66168 14.8113 4.6881 14.9143 4.73532C15.0172 4.78255 15.1098 4.84966 15.1867 4.93279C16.4717 6.30755 17.1866 8.11912 17.1866 10.001C17.1866 11.8828 16.4717 13.6944 15.1867 15.0691C15.1063 15.1551 15.0091 15.2235 14.9011 15.2703C14.7931 15.317 14.6766 15.3409 14.559 15.3406Z" fill="#0FA958"/>
<path d="M16.7579 17.1094C16.592 17.1093 16.4296 17.0613 16.2904 16.971C16.1513 16.8807 16.0412 16.7521 15.9735 16.6007C15.9058 16.4492 15.8834 16.2814 15.909 16.1175C15.9345 15.9536 16.007 15.8006 16.1176 15.6769C17.5113 14.1144 18.2814 12.0938 18.2814 9.99999C18.2814 7.90622 17.5113 5.88561 16.1176 4.32304C15.9705 4.15252 15.8962 3.93106 15.9107 3.70631C15.9252 3.48155 16.0273 3.27147 16.1951 3.12126C16.3629 2.97105 16.583 2.89273 16.808 2.90314C17.033 2.91356 17.2449 3.01188 17.3981 3.17694C19.0737 5.05467 19.9998 7.48333 19.9998 9.99999C19.9998 12.5167 19.0737 14.9453 17.3981 16.823C17.3175 16.9131 17.2188 16.9851 17.1085 17.0345C16.9982 17.0838 16.8787 17.1093 16.7579 17.1094Z" fill="#0FA958"/>
<path d="M3.24224 17.1094C3.12123 17.1096 3.00155 17.0842 2.89107 17.0349C2.78058 16.9855 2.6818 16.9133 2.60122 16.823C0.925591 14.9453 -0.000488281 12.5167 -0.000488281 9.99999C-0.000488281 7.48333 0.925591 5.05467 2.60122 3.17694C2.75445 3.01188 2.96635 2.91356 3.19133 2.90314C3.41631 2.89273 3.63639 2.97105 3.80421 3.12126C3.97203 3.27147 4.07417 3.48155 4.08866 3.70631C4.10315 3.93106 4.02883 4.15252 3.88169 4.32304C2.48805 5.88561 1.71788 7.90622 1.71788 9.99999C1.71788 12.0938 2.48805 14.1144 3.88169 15.6769C3.99227 15.8005 4.06473 15.9535 4.09034 16.1173C4.11594 16.2811 4.0936 16.4489 4.026 16.6003C3.9584 16.7517 3.84844 16.8804 3.70937 16.9707C3.5703 17.061 3.40807 17.1092 3.24224 17.1094Z" fill="#0FA958"/>
</g>
<defs>
<clipPath id="clip0_71:693">
<rect width="20" height="20" fill="white"/>
</clipPath>
</defs>
</svg>
